<?xml version="1.0" standalone="no"?>
<!DOCTYPE svg PUBLIC "-//W3C//DTD SVG 20010904//EN"
 "http://www.w3.org/TR/2001/REC-SVG-20010904/DTD/svg10.dtd">
<svg version="1.0" xmlns="http://www.w3.org/2000/svg"
 width="500.000000pt" height="500.000000pt" viewBox="0 0 500.000000 500.000000"
 preserveAspectRatio="xMidYMid meet">

<g transform="translate(0.000000,500.000000) scale(0.100000,-0.100000)"
fill="#000000" stroke="none">
<path d="M731 3168 c-11 -29 -39 -98 -62 -153 -60 -146 -109 -265 -124 -305
-7 -19 -23 -57 -35 -85 -23 -51 -128 -305 -159 -385 -10 -25 -40 -97 -66 -160
-26 -63 -60 -145 -75 -182 l-28 -68 73 0 72 0 21 58 c37 102 69 186 95 245
l26 57 289 0 290 0 25 -62 c14 -35 40 -99 57 -143 17 -44 38 -97 47 -117 l16
-38 69 0 c37 0 68 2 68 4 0 3 -27 71 -61 153 -34 81 -77 186 -96 233 -19 47
-45 110 -57 140 -13 30 -38 91 -56 135 -18 44 -44 107 -58 140 -14 33 -33 80
-43 105 -9 25 -51 128 -94 230 -42 102 -81 200 -86 218 -6 17 -14 32 -19 32
-5 0 -18 -24 -29 -52z m71 -350 c20 -51 62 -158 93 -237 31 -80 67 -173 80
-208 l24 -63 -239 0 c-132 0 -240 3 -240 6 0 4 15 45 34 93 19 47 64 163 100
256 82 209 97 245 105 245 4 0 23 -42 43 -92z"/>
<path d="M1510 2520 l0 -690 65 0 65 0 0 480 c0 264 3 480 8 480 4 0 31 -35
60 -78 29 -42 80 -115 113 -162 33 -47 71 -101 84 -120 13 -19 42 -60 63 -90
22 -30 65 -91 96 -135 30 -44 71 -102 91 -130 20 -27 46 -66 60 -85 13 -19 40
-57 60 -85 20 -27 52 -74 73 -104 l37 -54 3 689 c1 379 0 695 -3 702 -3 8 -27
12 -70 12 l-65 0 0 -492 0 -493 -27 40 c-15 22 -106 153 -203 290 -96 138
-183 261 -193 275 -9 14 -33 48 -52 75 -20 28 -47 66 -60 85 -14 19 -52 73
-85 120 -34 47 -72 102 -87 123 -14 20 -27 37 -29 37 -2 0 -4 -310 -4 -690z"/>
<path d="M2955 3153 c-97 -15 -240 -114 -277 -193 -44 -92 -40 -242 9 -312 57
-83 172 -149 338 -192 55 -15 111 -31 125 -35 14 -5 43 -14 65 -21 115 -36
191 -83 230 -144 24 -36 25 -139 1 -184 -26 -50 -84 -100 -145 -124 -48 -19
-75 -23 -186 -23 -113 0 -138 3 -192 24 -75 28 -138 90 -148 145 l-7 36 -79 0
c-57 0 -79 -4 -79 -12 1 -27 56 -136 86 -169 88 -99 232 -149 422 -149 214 1
389 92 455 238 31 69 30 219 -1 280 -33 63 -98 120 -177 156 -94 43 -106 47
-280 96 -250 69 -326 125 -333 244 -6 96 31 157 126 206 32 17 66 23 145 27
173 9 276 -31 322 -125 l20 -41 68 -1 c58 0 67 2 67 18 0 25 -62 126 -97 157
-42 39 -142 84 -209 95 -58 10 -211 11 -269 3z"/>
<path d="M3800 2490 l0 -660 65 0 65 0 0 290 0 290 305 0 305 0 0 -290 0 -290
65 0 65 0 0 660 0 660 -65 0 -65 0 0 -300 0 -300 -305 0 -305 0 0 300 0 300
-65 0 -65 0 0 -660z"/>
<path d="M2630 1541 c0 -12 6 -21 16 -21 9 0 14 7 12 17 -5 25 -28 28 -28 4z"/>
<path d="M3936 1534 c-9 -8 -16 -24 -16 -34 0 -10 -9 -20 -21 -23 -23 -6 -17
-27 7 -27 9 0 14 -11 14 -34 0 -26 -5 -35 -22 -40 -41 -10 -4 -27 52 -24 57 3
80 24 33 30 -23 2 -29 8 -31 36 -3 30 -1 32 27 32 21 0 31 5 31 15 0 9 -9 15
-23 15 -29 0 -37 7 -30 26 3 8 18 14 34 14 31 0 39 14 13 24 -27 10 -52 7 -68
-10z"/>
<path d="M4695 1540 c-3 -5 1 -10 9 -10 10 0 16 -9 16 -23 0 -20 -4 -23 -34
-19 -54 6 -81 -45 -54 -103 13 -30 53 -43 80 -26 11 7 18 7 18 1 0 -5 11 -10
25 -10 16 0 25 6 25 15 0 8 -4 15 -10 15 -6 0 -10 35 -10 85 l0 85 -29 0 c-17
0 -33 -4 -36 -10z m28 -102 c8 -28 -9 -58 -33 -58 -24 0 -41 30 -33 58 4 16
13 22 33 22 20 0 29 -6 33 -22z"/>
<path d="M2000 1515 c0 -8 7 -15 15 -15 12 0 15 -13 15 -60 0 -47 -3 -60 -15
-60 -8 0 -15 -7 -15 -15 0 -12 15 -15 75 -15 l75 0 0 45 c0 33 -4 45 -15 45
-10 0 -15 -10 -15 -30 0 -27 -3 -30 -30 -30 l-30 0 0 60 c0 53 2 60 20 60 11
0 20 7 20 15 0 11 -12 15 -50 15 -38 0 -50 -4 -50 -15z"/>
<path d="M3336 1508 c-38 -53 -5 -158 49 -158 63 0 99 97 55 153 -28 35 -81
38 -104 5z m80 -32 c16 -63 -21 -122 -52 -82 -27 38 -11 106 26 106 12 0 22
-9 26 -24z"/>
<path d="M3540 1505 c0 -18 -5 -25 -20 -25 -11 0 -20 -7 -20 -15 0 -8 9 -15
20 -15 16 0 20 -7 20 -38 0 -21 5 -43 12 -50 15 -15 53 -16 79 -2 31 17 22 31
-18 28 -36 -3 -38 -1 -41 29 -3 29 -1 32 29 35 46 4 50 28 5 28 -32 0 -36 3
-36 25 0 16 -6 25 -15 25 -9 0 -15 -9 -15 -25z"/>
<path d="M2211 1464 c-12 -15 -21 -34 -21 -44 0 -10 9 -29 21 -44 41 -52 129
-20 129 47 0 64 -89 92 -129 41z m89 -38 c0 -32 -26 -53 -48 -39 -24 14 -27
54 -7 70 24 17 55 -1 55 -31z"/>
<path d="M2396 1471 c-41 -45 12 -139 63 -112 17 9 21 9 21 -2 0 -25 -27 -39
-60 -32 -23 5 -30 3 -30 -8 0 -29 72 -37 105 -13 16 11 20 30 23 90 2 42 8 76
13 76 5 0 9 5 9 10 0 6 -11 10 -25 10 -14 0 -25 -5 -25 -12 0 -9 -3 -9 -12 0
-18 18 -63 14 -82 -7z m82 -49 c-2 -23 -8 -27 -33 -27 -24 0 -31 5 -33 24 -5
32 23 54 50 40 13 -7 18 -19 16 -37z"/>
<path d="M2590 1481 c0 -5 9 -11 21 -14 17 -5 20 -12 17 -44 -2 -31 -7 -39
-25 -41 -13 -2 -23 -10 -23 -18 0 -11 15 -14 65 -14 51 0 65 3 65 15 0 9 -9
15 -25 15 -24 0 -25 3 -25 55 l0 55 -35 0 c-19 0 -35 -4 -35 -9z"/>
<path d="M2776 1472 c-37 -42 -6 -122 48 -122 40 0 76 18 70 34 -4 11 -12 12
-40 3 -28 -9 -38 -8 -51 5 -24 25 -10 68 23 68 13 0 27 -7 30 -15 11 -27 34
-17 34 14 0 27 -2 28 -49 29 -35 1 -53 -3 -65 -16z"/>
<path d="M3120 1481 c0 -5 6 -11 14 -14 15 -6 11 -79 -5 -85 -5 -2 -9 -10 -9
-18 0 -9 11 -14 35 -14 34 0 45 15 26 36 -4 5 -4 23 1 42 6 23 14 32 30 32 19
0 20 -4 15 -55 l-6 -55 29 0 c29 0 53 21 32 28 -7 2 -12 19 -12 38 0 68 -40
96 -82 57 -17 -15 -18 -15 -18 0 0 11 -8 17 -25 17 -14 0 -25 -4 -25 -9z"/>
<path d="M4082 1467 c-28 -29 -28 -57 -1 -91 27 -34 71 -35 104 -1 31 30 32
68 3 95 -30 27 -79 26 -106 -3z m88 -41 c0 -30 -23 -49 -50 -41 -26 8 -28 60
-3 74 25 13 53 -4 53 -33z"/>
<path d="M4240 1481 c0 -6 5 -13 10 -16 6 -3 10 -22 10 -41 0 -20 5 -44 10
-55 13 -23 58 -26 66 -4 4 8 10 15 15 15 5 0 9 -7 9 -15 0 -8 9 -15 20 -15 21
0 28 24 10 35 -5 3 -10 28 -10 56 0 46 -2 49 -25 49 -25 0 -33 -14 -15 -25 15
-9 12 -61 -5 -75 -28 -23 -45 -4 -45 50 0 47 -2 50 -25 50 -14 0 -25 -4 -25
-9z"/>
<path d="M4430 1480 c0 -5 5 -10 10 -10 6 0 10 -20 10 -45 0 -25 -4 -45 -10
-45 -5 0 -10 -7 -10 -15 0 -10 11 -15 35 -15 24 0 35 5 35 15 0 8 -4 15 -10
15 -13 0 -13 36 0 61 6 10 20 19 32 19 19 0 20 -4 15 -55 l-6 -55 30 0 c29 0
38 17 20 36 -6 5 -11 29 -13 54 -3 38 -6 45 -26 48 -13 2 -32 -4 -43 -14 -17
-16 -19 -16 -19 -1 0 11 -8 17 -25 17 -14 0 -25 -4 -25 -10z"/>
<path d="M2920 1290 c0 -6 38 -10 95 -10 57 0 95 4 95 10 0 6 -38 10 -95 10
-57 0 -95 -4 -95 -10z"/>
<path d="M3660 1290 c0 -6 40 -10 100 -10 60 0 100 4 100 10 0 6 -40 10 -100
10 -60 0 -100 -4 -100 -10z"/>
</g>
</svg>
